<svg width="50" height="51" viewBox="0 0 50 51" fill="none" xmlns="http://www.w3.org/2000/svg">
<path d="M36.5063 29.5086C35.3583 29.5086 34.4244 28.5755 34.4244 27.4294C34.4244 26.2832 35.3583 25.3509 36.5063 25.3509C37.6545 25.3509 38.5884 26.283 38.5884 27.4294C38.5884 28.5757 37.6545 29.5086 36.5063 29.5086ZM13.4937 29.5086C12.3457 29.5086 11.4118 28.5755 11.4118 27.4294C11.4118 26.2832 12.3455 25.3509 13.4937 25.3509C14.6417 25.3509 15.5756 26.283 15.5756 27.4294C15.5756 28.5757 14.6419 29.5086 13.4937 29.5086ZM37.2531 16.9874L41.4141 9.79231C41.5287 9.59375 41.5596 9.35792 41.5002 9.13659C41.4408 8.91526 41.2959 8.72649 41.0973 8.61171C40.8984 8.49741 40.6622 8.46652 40.4405 8.52583C40.2188 8.58514 40.0298 8.72979 39.9148 8.92807L35.7017 16.2141C32.4796 14.7462 28.8612 13.9284 25 13.9284C21.1388 13.9284 17.5204 14.7462 14.2985 16.2141L10.0852 8.92807C9.97025 8.72979 9.78118 8.58514 9.5595 8.52583C9.33782 8.46652 9.10164 8.49741 8.90274 8.61171C8.70398 8.72639 8.55896 8.91515 8.49954 9.13653C8.44012 9.35791 8.47117 9.59378 8.58587 9.79231L12.7469 16.9874C5.60177 20.8672 0.714917 28.0891 0 36.6213H50C49.2845 28.0893 44.3977 20.8672 37.2531 16.9872" fill="#3DDB85"/>
</svg>
