<svg width="50" height="53" viewBox="0 0 50 53" fill="none" xmlns="http://www.w3.org/2000/svg">
<path d="M14.0623 29.7959C17.0351 27.2254 20.8467 25.6819 24.9998 25.6819C29.1529 25.6819 32.9645 27.2254 35.9373 29.7959L39.3651 39.5532L35.9373 49.4057H14.0623L11.0625 39.5532L14.0623 29.7959Z" fill="#E6E6E6"/>
<path d="M25 33.818C25.003 36.1069 26.8456 37.9529 29.0938 37.9529V35.3137C29.0938 34.4015 28.8016 33.5595 28.308 32.8763C30.414 32.5504 32.0313 30.7068 32.0313 28.4867C32.0313 26.0371 30.0625 24.0459 27.6406 24.0459H22.3594C19.9375 24.0459 17.9688 26.0371 17.9688 28.4867C17.9688 30.7068 19.586 32.5504 21.692 32.8763C21.1984 33.5595 20.9063 34.4015 20.9063 35.3137V37.9529C23.1544 37.9529 24.997 36.1069 25 33.818Z" fill="#F92F60"/>
<path d="M7.81279 43.6793C7.78169 38.1001 10.2847 33.0936 14.0625 29.7722V49.373L7.84388 49.4057L7.81279 43.6793Z" fill="#D3D3D3"/>
<path d="M35.9375 49.4057V29.7722C39.75 33.0827 42.1875 38.0812 42.1875 43.6697V49.4057H35.9375Z" fill="#D3D3D3"/>
<path d="M7.68498 49.4055H22.6952L19.3358 39.7524C18.3416 36.9047 15.8561 34.9453 13.0187 34.7053C12.8239 34.6888 12.4764 34.7424 12.2801 34.7636C8.02309 35.2238 4.41935 39.9814 6.15373 45.0043L7.68498 49.4055Z" fill="#FFCE7C"/>
<path d="M13.1016 34.7134C12.8828 34.697 12.6485 34.6807 12.4297 34.6807C7.33597 34.6807 3.7891 39.9817 5.52347 45.0046L7.05472 49.4058H8.44535L6.9141 45.0046C5.25785 40.2271 8.39847 35.1715 13.1016 34.7134Z" fill="#E19747"/>
<path d="M12.875 41.6179C13.9451 41.6179 14.8125 40.7096 14.8125 39.5891C14.8125 38.4686 13.9451 37.5603 12.875 37.5603C11.8049 37.5603 10.9375 38.4686 10.9375 39.5891C10.9375 40.7096 11.8049 41.6179 12.875 41.6179Z" fill="#F92F60"/>
<path d="M17.5625 46.5263C18.6326 46.5263 19.5 45.618 19.5 44.4975C19.5 43.3771 18.6326 42.4688 17.5625 42.4688C16.4924 42.4688 15.625 43.3771 15.625 44.4975C15.625 45.618 16.4924 46.5263 17.5625 46.5263Z" fill="#5092FF"/>
<path d="M11.3125 47.9822C12.3826 47.9822 13.25 47.0738 13.25 45.9534C13.25 44.8329 12.3826 43.9246 11.3125 43.9246C10.2424 43.9246 9.375 44.8329 9.375 45.9534C9.375 47.0738 10.2424 47.9822 11.3125 47.9822Z" fill="#86D72F"/>
<path d="M42.9687 38.1167C43.8281 38.1167 44.5312 38.844 44.5312 39.7329V43.4341H41.4062V39.7329C41.4062 38.844 42.0937 38.1167 42.9687 38.1167Z" fill="#F59F00"/>
<path d="M39.3939 34.2717C39.0169 36.5047 38.9597 38.7942 39.2317 41.0616L40.0911 48.2115C40.1536 48.6696 40.5286 49.0296 40.9661 49.0296C41.4192 49.0296 41.7942 48.686 41.8411 48.2115L42.7005 41.0616C42.9623 38.7917 42.9082 36.507 42.5336 34.2717L40.9363 33.6262L39.3939 34.2717Z" fill="#8C5543"/>
<path d="M42.5415 34.2718C42.354 33.1756 42.2031 32.0794 41.875 31.0159H40C39.6562 32.0794 39.5735 33.1756 39.386 34.2718H42.5415Z" fill="#E6E6E6"/>
<path d="M38.569 27.7271L39.6668 27.3948C40.1355 27.3948 40.7349 28.1119 40.7349 28.6027C40.7349 29.3226 40.9324 29.4399 41.6199 29.4399C42.28 29.4556 42.8702 29.4407 42.9391 28.7759C42.9432 28.8348 42.9453 28.8945 42.9453 28.9542C42.9453 30.3122 41.8984 31.4084 40.6016 31.4084C39.3047 31.4084 38.2578 30.3122 38.2578 28.9542C38.2578 28.5452 38.3516 28.1689 38.5234 27.8253C38.5384 27.7923 38.5535 27.7596 38.569 27.7271Z" fill="#F3AD61"/>
<path d="M43.2107 24.9785C43.1169 24.8967 43.0076 24.864 42.8982 24.864C41.0076 24.9949 39.4138 25.9275 38.5701 27.7272H39.6169C40.0857 27.7272 40.4607 28.1199 40.4607 28.6107C40.4607 29.3306 40.9919 29.9524 41.6794 29.9524C42.3669 29.9687 42.9138 29.3961 42.9451 28.6925C42.9451 28.6107 42.9294 28.5289 42.9138 28.4471V28.4308C42.6794 27.3673 42.8357 26.4674 43.3201 25.5675C43.4138 25.3712 43.3669 25.1258 43.2107 24.9785Z" fill="#5092FF"/>
<path d="M38.5966 40.7998C38.0131 40.7998 37.5149 41.3234 37.5007 41.9942C37.4865 42.4359 37.6857 42.8286 37.9846 43.0577C37.7 43.2704 37.5007 43.6467 37.5007 44.0721C37.5007 44.4975 37.6857 44.8738 37.9846 45.0865C37.7 45.2992 37.5007 45.6755 37.5007 46.1009C37.5007 46.5262 37.6857 46.9026 37.9846 47.1153C37.6857 47.3443 37.5007 47.737 37.5007 48.1787C37.5149 48.8495 38.0131 49.3731 38.5966 49.3731H43.2931C43.9762 49.3731 44.5312 48.735 44.5312 47.9497V42.2069C44.5312 41.4215 43.9762 40.7834 43.2931 40.7834H38.5966V40.7998Z" fill="#FFC83D"/>
<path d="M25 30.5904C23.2812 30.5904 21.875 29.1055 21.875 27.2907V24.0734C21.875 22.2586 23.2812 20.7737 25 20.7737C26.7187 20.7737 28.125 22.2586 28.125 24.0734V27.2907C28.125 29.1055 26.7187 30.5904 25 30.5904Z" fill="#FCB100"/>
<path d="M32.6683 7.2426C33.4724 7.5371 34.1993 8.12611 34.6632 8.97689C35.3901 10.3185 35.2818 11.9383 34.4776 13.149C34.1993 13.5744 34.0446 14.0816 34.0446 14.5888V21.4115C34.0446 22.933 33.1322 24.291 31.7713 24.7819L28.8484 25.8454V13.6889C28.6319 13.4435 28.4309 13.1817 28.2608 12.8709C27.9979 12.3964 27.8587 11.8892 27.7968 11.3656C27.6577 11.382 27.5185 11.3984 27.3638 11.3984C26.4514 11.3984 25.6318 11.0384 24.9822 10.4658C24.3482 11.0548 23.5131 11.3984 22.6007 11.3984C22.4615 11.3984 22.3068 11.382 22.1676 11.3656C22.1212 11.8728 21.9666 12.3964 21.7037 12.8709C21.5336 13.1817 21.348 13.4599 21.116 13.6889V25.829L18.1932 24.7655C16.8323 24.2583 15.9198 22.9167 15.9198 21.3951V14.5724C15.9198 14.0652 15.7652 13.558 15.5023 13.1327C14.7445 11.971 14.6053 10.4003 15.2703 9.09142C15.7188 8.19155 16.4611 7.55347 17.3117 7.2426L30.5341 5.47559C31.0135 6.31001 31.7868 6.93174 32.6683 7.2426Z" fill="#F1A11E"/>
<path d="M19.9219 17.7058C19.9219 19.1742 18.7851 20.3645 17.3828 20.3645C15.9805 20.3645 14.8438 19.1742 14.8438 17.7058C14.8438 16.2375 15.9805 15.0471 17.3828 15.0471C18.7851 15.0471 19.9219 16.2375 19.9219 17.7058Z" fill="#FDBB11"/>
<path d="M35.5469 17.7058C35.5469 19.1742 34.4101 20.3645 33.0078 20.3645C31.6055 20.3645 30.4688 19.1742 30.4688 17.7058C30.4688 16.2375 31.6055 15.0471 33.0078 15.0471C34.4101 15.0471 35.5469 16.2375 35.5469 17.7058Z" fill="#FDBB11"/>
<path d="M26.8338 5.23047H23.1667C19.0595 5.23047 16.0769 8.58013 16.4355 12.9807L17.0548 22.4878C17.4949 25.7225 20.233 28.1362 23.46 28.1362H25.0084H26.5567C29.8001 28.1362 32.5219 25.7225 32.9619 22.4878L33.5487 12.9807C34.005 8.72791 30.941 5.23047 26.8338 5.23047Z" fill="#FFC83D"/>
<path d="M18.7614 17.1413C18.9957 16.1269 19.8707 15.3743 20.9176 15.3743C22.0114 15.3743 22.9176 16.176 23.1051 17.2558C23.152 17.5012 22.9801 17.7139 22.7457 17.7139H19.1832C18.902 17.7139 18.6989 17.4194 18.7614 17.1413Z" fill="white"/>
<path d="M30.7145 17.1413C30.4801 16.1269 29.6051 15.3743 28.5582 15.3743C27.4801 15.3743 26.5739 16.176 26.3707 17.2558C26.3239 17.5012 26.4957 17.7139 26.7301 17.7139H30.2926C30.5739 17.7139 30.777 17.4358 30.7145 17.1413Z" fill="white"/>
<path d="M19.8242 17.3214C19.8242 16.5033 20.4648 15.8325 21.2461 15.8325C22.043 15.8325 22.6836 16.5033 22.668 17.3214C22.668 17.4523 22.6523 17.5832 22.6211 17.7141H19.8711C19.8398 17.5832 19.8242 17.4523 19.8242 17.3214Z" fill="#7D4533"/>
<path d="M29.6523 17.3214C29.6523 16.5033 29.0117 15.8325 28.2304 15.8325C27.4492 15.8325 26.8085 16.5033 26.8085 17.3214C26.8085 17.4523 26.8242 17.5832 26.8554 17.7141H29.6054C29.6367 17.5832 29.6523 17.4523 29.6523 17.3214Z" fill="#7D4533"/>
<path d="M21.2615 16.4707C21.7146 16.4707 22.074 16.847 22.074 17.3215C22.074 17.4687 22.0271 17.5996 21.9802 17.7142H20.5427C20.4802 17.5996 20.449 17.4687 20.449 17.3215C20.449 16.847 20.8083 16.4707 21.2615 16.4707Z" fill="black"/>
<path d="M28.2304 16.4707C27.7772 16.4707 27.4179 16.847 27.4179 17.3215C27.4179 17.4687 27.4491 17.5996 27.5116 17.7142H28.9491C29.0116 17.5996 29.0429 17.4687 29.0429 17.3215C29.0429 16.847 28.6835 16.4707 28.2304 16.4707Z" fill="black"/>
<path d="M18.974 13.434C18.7704 13.6002 18.734 13.9077 18.8927 14.121C19.051 14.3336 19.3436 14.3721 19.5471 14.2074L19.5509 14.2044C19.5556 14.2009 19.5641 14.1944 19.5763 14.1856C19.6007 14.1678 19.6399 14.1406 19.6928 14.1073C19.7988 14.0408 19.9584 13.9511 20.1636 13.8663C20.5739 13.6966 21.1595 13.5487 21.863 13.6354C22.1194 13.6669 22.3517 13.4749 22.3819 13.2064C22.412 12.938 22.2286 12.6947 21.9723 12.6632C21.082 12.5535 20.3395 12.741 19.8202 12.9558C19.5605 13.0632 19.3549 13.1781 19.2118 13.2679C19.1402 13.3129 19.0839 13.3519 19.044 13.3808L18.974 13.434Z" fill="#D37034"/>
<path d="M30.5833 14.121C30.742 13.9077 30.7053 13.5999 30.5017 13.4338L30.4988 13.4314L30.4939 13.4276L30.4795 13.4163C30.4678 13.4073 30.452 13.3953 30.432 13.3808C30.3921 13.3519 30.3358 13.3129 30.2642 13.2679C30.1212 13.1781 29.9156 13.0632 29.6559 12.9558C29.1365 12.741 28.394 12.5535 27.5038 12.6632C27.2474 12.6947 27.064 12.938 27.0942 13.2064C27.1243 13.4749 27.3566 13.6669 27.613 13.6354C28.3165 13.5487 28.9021 13.6966 29.3125 13.8663C29.5176 13.9511 29.6772 14.0408 29.7832 14.1073C29.8361 14.1406 29.8753 14.1678 29.8997 14.1856C29.9119 14.1944 29.9204 14.2009 29.9251 14.2044L29.9291 14.2075C30.1326 14.3721 30.4251 14.3335 30.5833 14.121Z" fill="#D37034"/>
<path d="M21.0115 16.7325C21.0115 16.8771 20.8995 16.9943 20.7615 16.9943C20.6234 16.9943 20.5115 16.8771 20.5115 16.7325C20.5115 16.5879 20.6234 16.4707 20.7615 16.4707C20.8995 16.4707 21.0115 16.5879 21.0115 16.7325Z" fill="white"/>
<path d="M28.0427 16.7325C28.0427 16.8771 27.9308 16.9943 27.7927 16.9943C27.6547 16.9943 27.5427 16.8771 27.5427 16.7325C27.5427 16.5879 27.6547 16.4707 27.7927 16.4707C27.9308 16.4707 28.0427 16.5879 28.0427 16.7325Z" fill="white"/>
<path d="M24.4446 17.1984L23.67 20.0427C23.5092 20.6249 23.8892 21.2237 24.43 21.2237H25.57C26.1108 21.2237 26.4907 20.6249 26.33 20.0427L25.5554 17.1984C25.3946 16.5663 24.62 16.5663 24.4446 17.1984Z" fill="#ED9200"/>
<path d="M25.0008 22.7467C24.1407 22.7467 23.3283 22.5195 22.6434 22.1177C22.4045 21.9779 22.1655 22.2749 22.3089 22.5195C22.8823 23.4805 23.8699 24.1269 25.0008 24.1269C26.1317 24.1269 27.1193 23.4805 27.6927 22.5195C27.8361 22.2749 27.5812 21.9954 27.3582 22.1177C26.6733 22.5195 25.8609 22.7467 25.0008 22.7467Z" fill="#990839"/>
<path d="M14.0547 9.68063C14.0547 8.94437 14.4141 8.27356 15.0234 7.89725L15.4453 7.63547C19.6016 4.98495 24.3828 3.59424 29.2578 3.59424C32.9453 3.59424 35.9297 6.71924 35.9297 10.5805C35.9297 11.2349 35.4141 11.7749 34.7891 11.7749H16.0547C14.9453 11.7749 14.0547 10.8423 14.0547 9.68063Z" fill="#212121"/>
</svg>
