<svg width="50" height="53" viewBox="0 0 50 53" fill="none" xmlns="http://www.w3.org/2000/svg">
<g filter="url(#filter0_i_161_588)">
<path d="M7.8125 47.8258H42.1563C44.75 47.8258 46.8594 45.617 46.8594 42.901V33.0843C46.8594 31.2845 45.4688 29.812 43.7344 29.812H6.23438C4.51563 29.812 3.10938 31.2682 3.10938 33.0843V42.901C3.10938 45.6334 5.21875 47.8258 7.8125 47.8258Z" fill="url(#paint0_linear_161_588)"/>
</g>
<g filter="url(#filter1_f_161_588)">
<path d="M12.1562 45.1635C33.5701 45.1635 39.8383 42.1064 39.8383 40.6104C39.8383 39.1143 32.4994 36.0542 12.1562 36.0542V45.1635Z" fill="url(#paint1_radial_161_588)"/>
</g>
<path d="M43.7344 28.1924H6.23438C4.51563 28.1924 3.10938 29.6485 3.10938 31.4646V34.7369H46.8438V31.4646C46.8438 29.6649 45.4531 28.1924 43.7344 28.1924Z" fill="url(#paint2_linear_161_588)"/>
<path d="M43.7344 28.1924H6.23438C4.51563 28.1924 3.10938 29.6485 3.10938 31.4646V34.7369H46.8438V31.4646C46.8438 29.6649 45.4531 28.1924 43.7344 28.1924Z" fill="url(#paint3_linear_161_588)"/>
<g filter="url(#filter2_i_161_588)">
<path d="M37.875 11.733L11.1094 39.7598C10.7969 40.087 10.7969 40.6106 11.1094 40.9378C11.4219 41.265 11.9219 41.265 12.2344 40.9378L39 12.911C39.3125 12.5838 39.3125 12.0602 39 11.733C38.6875 11.4057 38.1875 11.4057 37.875 11.733Z" fill="url(#paint4_linear_161_588)"/>
<path d="M37.875 11.733L11.1094 39.7598C10.7969 40.087 10.7969 40.6106 11.1094 40.9378C11.4219 41.265 11.9219 41.265 12.2344 40.9378L39 12.911C39.3125 12.5838 39.3125 12.0602 39 11.733C38.6875 11.4057 38.1875 11.4057 37.875 11.733Z" fill="url(#paint5_radial_161_588)"/>
</g>
<path d="M35.6406 41.134C36.8281 42.3774 38.6875 42.4756 39.5781 41.2649C45.6718 32.9206 45.0312 20.8788 37.6875 13.189C30.3437 5.49917 18.8125 4.812 10.8437 11.1929C9.68746 12.1091 9.78121 14.0561 10.9687 15.2996L12.1562 16.543L23.9983 29.0479L34.4375 39.8742L35.6406 41.134Z" fill="url(#paint6_linear_161_588)"/>
<path d="M35.6406 41.134C36.8281 42.3774 38.6875 42.4756 39.5781 41.2649C45.6718 32.9206 45.0312 20.8788 37.6875 13.189C30.3437 5.49917 18.8125 4.812 10.8437 11.1929C9.68746 12.1091 9.78121 14.0561 10.9687 15.2996L12.1562 16.543L23.9983 29.0479L34.4375 39.8742L35.6406 41.134Z" fill="url(#paint7_radial_161_588)"/>
<path d="M35.6406 41.134C36.8281 42.3774 38.6875 42.4756 39.5781 41.2649C45.6718 32.9206 45.0312 20.8788 37.6875 13.189C30.3437 5.49917 18.8125 4.812 10.8437 11.1929C9.68746 12.1091 9.78121 14.0561 10.9687 15.2996L12.1562 16.543L23.9983 29.0479L34.4375 39.8742L35.6406 41.134Z" fill="url(#paint8_linear_161_588)"/>
<path d="M35.6406 41.134C36.8281 42.3774 38.6875 42.4756 39.5781 41.2649C45.6718 32.9206 45.0312 20.8788 37.6875 13.189C30.3437 5.49917 18.8125 4.812 10.8437 11.1929C9.68746 12.1091 9.78121 14.0561 10.9687 15.2996L12.1562 16.543L23.9983 29.0479L34.4375 39.8742L35.6406 41.134Z" fill="url(#paint9_linear_161_588)"/>
<path d="M35.6406 41.134C36.8281 42.3774 38.6875 42.4756 39.5781 41.2649C45.6718 32.9206 45.0312 20.8788 37.6875 13.189C30.3437 5.49917 18.8125 4.812 10.8437 11.1929C9.68746 12.1091 9.78121 14.0561 10.9687 15.2996L12.1562 16.543L23.9983 29.0479L34.4375 39.8742L35.6406 41.134Z" fill="url(#paint10_radial_161_588)"/>
<path d="M37.8485 13.3956C43.7632 19.8912 42.2688 31.6576 34.4219 39.8743L28.8347 34.0198L28.8438 34.0169C36.5923 25.9033 40.5289 16.8073 37.8485 13.3956Z" fill="url(#paint11_linear_161_588)"/>
<path d="M37.8485 13.3956C43.7632 19.8912 42.2688 31.6576 34.4219 39.8743L28.8347 34.0198L28.8438 34.0169C36.5923 25.9033 40.5289 16.8073 37.8485 13.3956Z" fill="url(#paint12_linear_161_588)"/>
<path d="M37.4213 12.9486C31.2169 6.76271 20.0004 8.32935 12.1562 16.5431L17.7044 22.3961C25.4596 14.278 34.158 10.1404 37.4213 12.9486Z" fill="url(#paint13_linear_161_588)"/>
<path d="M37.4213 12.9486C31.2169 6.76271 20.0004 8.32935 12.1562 16.5431L17.7044 22.3961C25.4596 14.278 34.158 10.1404 37.4213 12.9486Z" fill="url(#paint14_linear_161_588)"/>
<g filter="url(#filter3_f_161_588)">
<path d="M11.5454 40.1909L20.2557 31.0562" stroke="url(#paint15_linear_161_588)" stroke-width="0.102258" stroke-linecap="round"/>
</g>
<defs>
<filter id="filter0_i_161_588" x="3.04802" y="29.812" width="43.8114" height="18.0137" filterUnits="userSpaceOnUse" color-interpolation-filters="sRGB">
<feFlood flood-opacity="0" result="BackgroundImageFix"/>
<feBlend mode="normal" in="SourceGraphic" in2="BackgroundImageFix" result="shape"/>
<feColorMatrix in="SourceAlpha" type="matrix" values="0 0 0 0 0 0 0 0 0 0 0 0 0 0 0 0 0 0 127 0" result="hardAlpha"/>
<feOffset dx="-0.0613547"/>
<feGaussianBlur stdDeviation="0.102258"/>
<feComposite in2="hardAlpha" operator="arithmetic" k2="-1" k3="1"/>
<feColorMatrix type="matrix" values="0 0 0 0 1 0 0 0 0 0.886275 0 0 0 0 0.45098 0 0 0 1 0"/>
<feBlend mode="normal" in2="shape" result="effect1_innerShadow_161_588"/>
</filter>
<filter id="filter1_f_161_588" x="11.7472" y="35.6452" width="28.5002" height="9.92744" filterUnits="userSpaceOnUse" color-interpolation-filters="sRGB">
<feFlood flood-opacity="0" result="BackgroundImageFix"/>
<feBlend mode="normal" in="SourceGraphic" in2="BackgroundImageFix" result="shape"/>
<feGaussianBlur stdDeviation="0.204516" result="effect1_foregroundBlur_161_588"/>
</filter>
<filter id="filter2_i_161_588" x="10.875" y="11.4057" width="28.3594" height="29.7776" filterUnits="userSpaceOnUse" color-interpolation-filters="sRGB">
<feFlood flood-opacity="0" result="BackgroundImageFix"/>
<feBlend mode="normal" in="SourceGraphic" in2="BackgroundImageFix" result="shape"/>
<feColorMatrix in="SourceAlpha" type="matrix" values="0 0 0 0 0 0 0 0 0 0 0 0 0 0 0 0 0 0 127 0" result="hardAlpha"/>
<feOffset dy="-0.0818063"/>
<feGaussianBlur stdDeviation="0.102258"/>
<feComposite in2="hardAlpha" operator="arithmetic" k2="-1" k3="1"/>
<feColorMatrix type="matrix" values="0 0 0 0 0.498039 0 0 0 0 0.262745 0 0 0 0 0.109804 0 0 0 1 0"/>
<feBlend mode="normal" in2="shape" result="effect1_innerShadow_161_588"/>
</filter>
<filter id="filter3_f_161_588" x="11.3919" y="30.9029" width="9.01702" height="9.44158" filterUnits="userSpaceOnUse" color-interpolation-filters="sRGB">
<feFlood flood-opacity="0" result="BackgroundImageFix"/>
<feBlend mode="normal" in="SourceGraphic" in2="BackgroundImageFix" result="shape"/>
<feGaussianBlur stdDeviation="0.0511289" result="effect1_foregroundBlur_161_588"/>
</filter>
<linearGradient id="paint0_linear_161_588" x1="42.2009" y1="46.4948" x2="18.2771" y2="33.7004" gradientUnits="userSpaceOnUse">
<stop stop-color="#FFC250"/>
<stop offset="1" stop-color="#FFB000"/>
</linearGradient>
<radialGradient id="paint1_radial_161_588" cx="0" cy="0" r="1" gradientUnits="userSpaceOnUse" gradientTransform="translate(37.907 40.037) rotate(-180) scale(30.0353 8.63304)">
<stop stop-color="#D7731C"/>
<stop offset="1" stop-color="#D7731C" stop-opacity="0"/>
</radialGradient>
<linearGradient id="paint2_linear_161_588" x1="3.10938" y1="31.4715" x2="46.8472" y2="31.4715" gradientUnits="userSpaceOnUse">
<stop stop-color="#49ADE8"/>
<stop offset="1" stop-color="#6CEDFD"/>
</linearGradient>
<linearGradient id="paint3_linear_161_588" x1="47.1854" y1="32.4693" x2="45.5518" y2="32.4693" gradientUnits="userSpaceOnUse">
<stop stop-color="#7DF8FF"/>
<stop offset="1" stop-color="#7DF8FF" stop-opacity="0"/>
</linearGradient>
<linearGradient id="paint4_linear_161_588" x1="39.0424" y1="11.7489" x2="9.86643" y2="39.612" gradientUnits="userSpaceOnUse">
<stop stop-color="#A66459"/>
<stop offset="0.588542" stop-color="#8A3F42"/>
<stop offset="1" stop-color="#7B4230"/>
</linearGradient>
<radialGradient id="paint5_radial_161_588" cx="0" cy="0" r="1" gradientUnits="userSpaceOnUse" gradientTransform="translate(39.1434 11.6263) rotate(138.552) scale(1.46824 0.947763)">
<stop stop-color="#C18E80"/>
<stop offset="0.993283" stop-color="#C18E80" stop-opacity="0"/>
</radialGradient>
<linearGradient id="paint6_linear_161_588" x1="34.5623" y1="22.364" x2="20.5351" y2="25.4554" gradientUnits="userSpaceOnUse">
<stop stop-color="#FF6072"/>
<stop offset="1" stop-color="#EC3A51"/>
</linearGradient>
<radialGradient id="paint7_radial_161_588" cx="0" cy="0" r="1" gradientUnits="userSpaceOnUse" gradientTransform="translate(25.2698 30.3547) rotate(-24.1347) scale(20.2137 32.892)">
<stop offset="0.767914" stop-color="#EA596B" stop-opacity="0"/>
<stop offset="1" stop-color="#EA596B"/>
</radialGradient>
<linearGradient id="paint8_linear_161_588" x1="20.4363" y1="27.7545" x2="25.1675" y2="23.2362" gradientUnits="userSpaceOnUse">
<stop stop-color="#CB3A43"/>
<stop offset="0.481167" stop-color="#D92E49"/>
<stop offset="0.671191" stop-color="#D92E49" stop-opacity="0"/>
</linearGradient>
<linearGradient id="paint9_linear_161_588" x1="46.3772" y1="36.9482" x2="35.041" y2="29.1778" gradientUnits="userSpaceOnUse">
<stop stop-color="#EE442B"/>
<stop offset="1" stop-color="#EE442B" stop-opacity="0"/>
</linearGradient>
<radialGradient id="paint10_radial_161_588" cx="0" cy="0" r="1" gradientUnits="userSpaceOnUse" gradientTransform="translate(31.9256 27.3747) rotate(-118.301) scale(21.8343 35.541)">
<stop stop-color="#CA3E4B" stop-opacity="0"/>
<stop offset="0.611421" stop-color="#CA3E4B" stop-opacity="0"/>
<stop offset="1" stop-color="#CA3E4B"/>
</radialGradient>
<linearGradient id="paint11_linear_161_588" x1="23.5272" y1="28.6019" x2="38.1346" y2="14.6518" gradientUnits="userSpaceOnUse">
<stop stop-color="#E5DFEA"/>
<stop offset="1" stop-color="#FEFCFF"/>
</linearGradient>
<linearGradient id="paint12_linear_161_588" x1="21.3788" y1="29.9312" x2="25.9244" y2="25.5901" gradientUnits="userSpaceOnUse">
<stop stop-color="#C9B9C9"/>
<stop offset="0.61236" stop-color="#D4C9DC"/>
<stop offset="0.814607" stop-color="#D4C9DC" stop-opacity="0"/>
</linearGradient>
<linearGradient id="paint13_linear_161_588" x1="23.5272" y1="28.6019" x2="38.1346" y2="14.6518" gradientUnits="userSpaceOnUse">
<stop stop-color="#E5DFEA"/>
<stop offset="1" stop-color="#FEFCFF"/>
</linearGradient>
<linearGradient id="paint14_linear_161_588" x1="21.3788" y1="29.9312" x2="25.9244" y2="25.5901" gradientUnits="userSpaceOnUse">
<stop stop-color="#C9B9C9"/>
<stop offset="0.61236" stop-color="#D4C9DC"/>
<stop offset="0.814607" stop-color="#D4C9DC" stop-opacity="0"/>
</linearGradient>
<linearGradient id="paint15_linear_161_588" x1="12.1501" y1="39.2023" x2="21.2519" y2="37.3335" gradientUnits="userSpaceOnUse">
<stop stop-color="#7F5951"/>
<stop offset="1" stop-color="#7F5951" stop-opacity="0"/>
</linearGradient>
</defs>
</svg>
