<svg width="50" height="51" viewBox="0 0 50 51" fill="none" xmlns="http://www.w3.org/2000/svg">
<g clip-path="url(#clip0_187_1311)">
<path d="M16.104 30.4912C16.0142 30.3351 15.9521 30.1646 15.9204 29.9873C15.9556 30.1639 16.0181 30.3338 16.104 30.4912ZM16.3298 30.7697C16.4165 30.8557 16.5142 30.9303 16.6224 30.9838C16.5143 30.9285 16.4157 30.8563 16.3306 30.7697H16.3298Z" fill="#083042"/>
<path d="M25.1338 40.3308H25.0791C24.5314 40.3331 23.9919 40.1966 23.5112 39.9339L12.5026 33.7816C11.853 33.4175 11.4534 32.7425 11.4534 32.0132V19.4953C11.4534 18.9589 11.5506 18.4445 11.7776 17.9945L3.16977 13.2039C2.81313 13.9539 2.62953 14.8007 2.64008 15.6906V36.3652C2.64637 36.9632 2.8108 37.5488 3.11664 38.0627C3.42249 38.5765 3.85888 39.0003 4.38148 39.291L22.5381 49.4519C23.3389 49.9019 24.2362 50.1164 25.1229 50.1164V50.1058C25.1444 48.8089 25.1338 43.6101 25.1338 40.3308Z" fill="#083042"/>
<path d="M33.7736 20.2654L33.7084 20.1693C33.6545 20.0943 33.601 20.0299 33.5471 19.9553C33.601 20.0193 33.6545 20.0947 33.7084 20.1693C33.735 20.198 33.757 20.2301 33.7736 20.2654ZM24.7119 15.2498C24.7666 15.2498 24.81 15.2393 24.8643 15.2393C24.81 15.2498 24.7557 15.2498 24.7119 15.2498Z" fill="#3DDB85"/>
<path d="M11.7668 17.9831C12.0084 17.4831 12.3923 17.0656 12.8703 16.7831L23.2297 10.7272C23.7042 10.4484 24.2434 10.2987 24.7938 10.2931C25.3441 10.2874 25.8863 10.4261 26.3664 10.6952L36.8344 16.5581C37.3042 16.8203 37.7076 17.1869 38.0133 17.6296L46.4809 12.6249C45.9772 11.8999 45.3154 11.2988 44.5453 10.8671L27.2527 1.18896C26.4612 0.746693 25.5677 0.518968 24.661 0.528355C23.7543 0.537742 22.8658 0.783915 22.0836 1.24247L4.98672 11.2311C4.1976 11.6922 3.56478 12.3792 3.16992 13.2034L11.7668 17.9831Z" fill="#3DDC84"/>
<path d="M16.1238 20.3953C16.1457 20.3523 16.1672 20.3093 16.1895 20.2781C16.1672 20.3207 16.1461 20.3523 16.1238 20.3953Z" fill="#3DDB85"/>
<path d="M46.4697 12.625L38.0022 17.6297C38.3264 18.1012 38.5213 18.6582 38.5314 19.227V31.1449C38.538 31.6908 38.3993 32.2286 38.1295 32.7032C37.8598 33.1777 37.4687 33.5721 36.9963 33.8457L26.6361 39.9023C26.1789 40.1692 25.6618 40.3165 25.1326 40.3309C25.1439 43.6 25.1439 48.7984 25.1221 50.0953V50.1059C26.0302 50.0959 26.9203 49.8521 27.7068 49.398L44.8041 39.3984C46.3939 38.466 47.3674 36.7723 47.3455 34.9395V15.2723C47.3346 14.3184 47.0104 13.4074 46.4697 12.625Z" fill="#4285F4"/>
<path d="M33.9701 29.8699C33.9592 29.8918 33.9592 29.9133 33.9482 29.9355C33.9605 29.9157 33.968 29.8932 33.9701 29.8699ZM33.8615 20.4062C33.8393 20.3523 33.8068 20.3094 33.7744 20.2559C33.8068 20.3094 33.8396 20.3633 33.8615 20.4062ZM26.0967 35.1L33.0393 31.0383L26.0967 35.1008V35.1ZM33.883 30.1164C33.8611 30.1703 33.8287 30.2238 33.8064 30.2777C33.8287 30.2133 33.8502 30.1594 33.883 30.1164Z" fill="#4285F4"/>
<path d="M16.093 20.4912C16.0049 20.6994 15.9502 20.9202 15.9309 21.1455C15.9199 21.2307 15.9199 21.3166 15.9199 21.4135V29.8053C15.9199 29.8693 15.9199 29.9232 15.9309 29.9877C15.9527 30.1693 16.0176 30.3412 16.1145 30.4916C16.1797 30.5986 16.2551 30.6838 16.3312 30.7697C16.418 30.8557 16.5148 30.9303 16.6227 30.9846L23.9984 35.1107C24.3193 35.2881 24.6803 35.3802 25.0469 35.3783H25.123C25.4669 35.3667 25.802 35.2672 26.0965 35.0893L33.0391 31.0271C33.0824 31.0057 33.1148 30.9732 33.1582 30.9521C33.234 30.8986 33.3098 30.8447 33.3746 30.7803C33.4762 30.6881 33.5703 30.5881 33.6555 30.4803C33.7094 30.4053 33.7637 30.3307 33.807 30.2553C33.8391 30.2021 33.8613 30.1482 33.8824 30.0943C33.9043 30.0416 33.9371 29.9768 33.9586 29.9127C33.9691 29.8908 33.9691 29.8693 33.9801 29.8482C34.0456 29.6401 34.0784 29.4231 34.0773 29.2049V21.2201C34.0773 21.0705 34.0555 20.9311 34.0234 20.792C34.002 20.6951 33.9687 20.6092 33.9367 20.5232L33.8719 20.3951C33.8504 20.3412 33.8172 20.2986 33.7852 20.2447L33.7203 20.1486C33.6664 20.0732 33.6121 20.0092 33.5582 19.9342C33.382 19.7289 33.1693 19.5581 32.9309 19.4303L25.9129 15.4975C25.7918 15.4293 25.665 15.3718 25.534 15.3256C25.3582 15.2719 25.1765 15.2397 24.993 15.2295H24.8523C24.7988 15.2295 24.7555 15.2295 24.7016 15.2396C24.5773 15.2507 24.4542 15.2723 24.3336 15.3041C24.3121 15.3146 24.2906 15.3146 24.2687 15.326C24.1066 15.3689 23.9551 15.4436 23.8035 15.5291L16.8609 19.5916C16.6591 19.7096 16.4826 19.8662 16.3414 20.0525C16.2879 20.1275 16.2336 20.2025 16.1902 20.2775C16.1687 20.3205 16.1473 20.3525 16.1254 20.3955L16.093 20.4912Z" fill="#D6F0FF"/>
<path d="M25.1219 35.3779H25.0461C24.6793 35.3797 24.3181 35.2877 23.9969 35.1107L16.6219 30.9842C16.5159 30.9251 16.4178 30.8531 16.3297 30.7697C16.2451 30.6871 16.1723 30.5932 16.1133 30.4908C16.0235 30.3347 15.9614 30.1642 15.9297 29.9869C15.9184 29.9232 15.9184 29.8693 15.9184 29.8053V21.4127C15.9184 21.3271 15.9184 21.2311 15.9297 21.1447C15.9504 20.9201 16.0047 20.6994 16.0918 20.4908L14.1016 19.2803L11.7656 17.9834C11.5492 18.4334 11.4414 18.9475 11.4414 19.4838V32.0022C11.4479 32.3626 11.5479 32.7152 11.7318 33.0253C11.9157 33.3354 12.1771 33.5923 12.4902 33.7709L23.4891 39.9334C23.968 40.2006 24.5087 40.3375 25.057 40.3303H25.1117C25.1117 38.733 25.1004 37.5971 25.1004 37.5971L25.1219 35.3779Z" fill="#083042"/>
<path d="M25.1219 35.3779H25.0461C24.6793 35.3797 24.3181 35.2877 23.9969 35.1107L16.6219 30.9842C16.5159 30.9251 16.4178 30.8531 16.3297 30.7697C16.2451 30.6871 16.1723 30.5932 16.1133 30.4908C16.0235 30.3347 15.9614 30.1642 15.9297 29.9869C15.9184 29.9232 15.9184 29.8693 15.9184 29.8053V21.4127C15.9184 21.3271 15.9184 21.2311 15.9297 21.1447C15.9504 20.9201 16.0047 20.6994 16.0918 20.4908L14.1016 19.2803L11.7656 17.9834C11.5492 18.4334 11.4414 18.9475 11.4414 19.4838V32.0022C11.4479 32.3626 11.5479 32.7152 11.7318 33.0253C11.9157 33.3354 12.1771 33.5923 12.4902 33.7709L23.4891 39.9334C23.968 40.2006 24.5087 40.3375 25.057 40.3303H25.1117C25.1117 38.733 25.1004 37.5971 25.1004 37.5971L25.1219 35.3779Z" fill="#041619"/>
<path d="M36.8228 16.5582L26.3545 10.6949C25.8744 10.426 25.3323 10.2874 24.782 10.2931C24.2318 10.2988 23.6926 10.4485 23.2182 10.7273L12.8588 16.7836C12.3781 17.0631 11.9932 17.4816 11.7549 17.984L14.1025 19.2809L16.092 20.4914L16.124 20.3953C16.1459 20.3519 16.1674 20.3094 16.1889 20.2773C16.2322 20.2023 16.2865 20.1273 16.3404 20.0523C16.4811 19.8699 16.6541 19.7203 16.86 19.5914L23.8021 15.5289C23.9506 15.4457 24.1057 15.3777 24.2674 15.3258C24.2893 15.3152 24.3107 15.3152 24.3322 15.3039C24.4525 15.2711 24.5756 15.25 24.6998 15.2398C24.7537 15.2398 24.7971 15.2289 24.8514 15.2289H24.992C25.1752 15.2406 25.3564 15.2723 25.5326 15.325C25.6654 15.3672 25.7924 15.4246 25.9111 15.4973L32.9291 19.4309C33.166 19.5611 33.3785 19.7315 33.5572 19.9344C33.6107 19.9984 33.6654 20.0738 33.7189 20.1484L33.7842 20.2445L35.5791 19.0555L38.0123 17.6086C37.6986 17.1902 37.2986 16.8152 36.8228 16.5582Z" fill="#3DDB85"/>
<path d="M36.8228 16.5582L26.3545 10.6949C25.8744 10.426 25.3323 10.2874 24.782 10.2931C24.2318 10.2988 23.6926 10.4485 23.2182 10.7273L12.8588 16.7836C12.3781 17.0631 11.9932 17.4816 11.7549 17.984L14.1025 19.2809L16.092 20.4914L16.124 20.3953C16.1459 20.3519 16.1674 20.3094 16.1889 20.2773C16.2322 20.2023 16.2865 20.1273 16.3404 20.0523C16.4811 19.8699 16.6541 19.7203 16.86 19.5914L23.8021 15.5289C23.9506 15.4457 24.1057 15.3777 24.2674 15.3258C24.2893 15.3152 24.3107 15.3152 24.3322 15.3039C24.4525 15.2711 24.5756 15.25 24.6998 15.2398C24.7537 15.2398 24.7971 15.2289 24.8514 15.2289H24.992C25.1752 15.2406 25.3564 15.2723 25.5326 15.325C25.6654 15.3672 25.7924 15.4246 25.9111 15.4973L32.9291 19.4309C33.166 19.5611 33.3785 19.7315 33.5572 19.9344C33.6107 19.9984 33.6654 20.0738 33.7189 20.1484L33.7842 20.2445L35.5791 19.0555L38.0123 17.6086C37.6986 17.1902 37.2986 16.8152 36.8228 16.5582Z" fill="#37BF6E"/>
<path d="M33.7736 20.2663C33.806 20.3194 33.8279 20.3624 33.8599 20.4163L33.9251 20.5448C34.0161 20.7658 34.0639 21.0022 34.0658 21.2413V29.2264C34.0666 29.4445 34.0336 29.6614 33.9681 29.8694C33.9576 29.8905 33.9576 29.9124 33.9466 29.9334C33.926 29.9962 33.9008 30.0573 33.8712 30.1163C33.849 30.169 33.8166 30.2229 33.7951 30.2764C33.7521 30.3518 33.6978 30.4264 33.6435 30.5018C33.5585 30.6094 33.4645 30.7096 33.3626 30.8014C33.2978 30.8659 33.222 30.9194 33.1462 30.9733C33.1029 30.9944 33.0709 31.0268 33.0275 31.0483L26.0845 35.11C25.7859 35.2785 25.4532 35.3776 25.1111 35.3999V37.6182C25.1111 37.6182 25.1111 38.7545 25.122 40.3514C25.652 40.342 26.1703 40.1943 26.6255 39.9229L36.9849 33.8666C37.9478 33.2991 38.5318 32.2698 38.5209 31.1663V19.2479C38.5103 18.669 38.3158 18.1221 37.9916 17.6506L35.5576 19.0979L33.7736 20.2663Z" fill="#4285F4"/>
<path d="M33.7736 20.2663C33.806 20.3194 33.8279 20.3624 33.8599 20.4163L33.9251 20.5448C34.0161 20.7658 34.0639 21.0022 34.0658 21.2413V29.2264C34.0666 29.4445 34.0336 29.6614 33.9681 29.8694C33.9576 29.8905 33.9576 29.9124 33.9466 29.9334C33.926 29.9962 33.9008 30.0573 33.8712 30.1163C33.849 30.169 33.8166 30.2229 33.7951 30.2764C33.7521 30.3518 33.6978 30.4264 33.6435 30.5018C33.5585 30.6094 33.4645 30.7096 33.3626 30.8014C33.2978 30.8659 33.222 30.9194 33.1462 30.9733C33.1029 30.9944 33.0709 31.0268 33.0275 31.0483L26.0845 35.11C25.7859 35.2785 25.4532 35.3776 25.1111 35.3999V37.6182C25.1111 37.6182 25.1111 38.7545 25.122 40.3514C25.652 40.342 26.1703 40.1943 26.6255 39.9229L36.9849 33.8666C37.9478 33.2991 38.5318 32.2698 38.5209 31.1663V19.2479C38.5103 18.669 38.3158 18.1221 37.9916 17.6506L35.5576 19.0979L33.7736 20.2663Z" fill="#3870B2"/>
<path d="M24.2794 15.3367C24.1169 15.3796 23.9653 15.4546 23.8145 15.5398L16.8716 19.6023L23.8138 15.5406C23.9582 15.4509 24.1147 15.3825 24.2786 15.3375L24.2794 15.3367Z" fill="#D6F0FF"/>
<path opacity="0.1" d="M24.2794 15.3367C24.1169 15.3796 23.9653 15.4546 23.8145 15.5398L16.8716 19.6023L23.8138 15.5406C23.9582 15.4509 24.1147 15.3825 24.2786 15.3375L24.2794 15.3367Z" fill="black"/>
<path d="M33.9253 20.5347C33.9587 20.6221 33.9874 20.7113 34.0113 20.8019C33.9898 20.7163 33.9566 20.6308 33.9246 20.5347H33.9253Z" fill="#D6F0FF"/>
<path opacity="0.1" d="M33.9253 20.5347C33.9587 20.6221 33.9874 20.7113 34.0113 20.8019C33.9898 20.7163 33.9566 20.6308 33.9246 20.5347H33.9253Z" fill="black"/>
</g>
<defs>
<clipPath id="clip0_187_1311">
<rect width="50" height="50" fill="white" transform="translate(0 0.5)"/>
</clipPath>
</defs>
</svg>
