<svg width="34" height="51" viewBox="0 0 34 51" fill="none" xmlns="http://www.w3.org/2000/svg">
<g clip-path="url(#clip0_161_347)">
<path d="M8.99691 50.4999C13.5969 50.4999 17.3302 46.7666 17.3302 42.1666V33.8333H8.99691C4.39691 33.8333 0.663574 37.5666 0.663574 42.1666C0.663574 46.7666 4.39691 50.4999 8.99691 50.4999Z" fill="#0ACF83"/>
<path d="M0.663574 25.5001C0.663574 20.9001 4.39691 17.1667 8.99691 17.1667H17.3302V33.8334H8.99691C4.39691 33.8334 0.663574 30.1001 0.663574 25.5001Z" fill="#A259FF"/>
<path d="M0.663574 8.83333C0.663574 4.23333 4.39691 0.5 8.99691 0.5H17.3302V17.1667H8.99691C4.39691 17.1667 0.663574 13.4333 0.663574 8.83333Z" fill="#F24E1E"/>
<path d="M17.3301 0.5H25.6634C30.2634 0.5 33.9967 4.23333 33.9967 8.83333C33.9967 13.4333 30.2634 17.1667 25.6634 17.1667H17.3301V0.5Z" fill="#FF7262"/>
<path d="M33.9967 25.5001C33.9967 30.1001 30.2634 33.8334 25.6634 33.8334C21.0634 33.8334 17.3301 30.1001 17.3301 25.5001C17.3301 20.9001 21.0634 17.1667 25.6634 17.1667C30.2634 17.1667 33.9967 20.9001 33.9967 25.5001Z" fill="#1ABCFE"/>
</g>
<defs>
<clipPath id="clip0_161_347">
<rect width="33.34" height="50" fill="white" transform="translate(0.660156 0.5)"/>
</clipPath>
</defs>
</svg>
