<svg width="50" height="51" viewBox="0 0 50 51" fill="none" xmlns="http://www.w3.org/2000/svg">
<path d="M45.105 5.39502H24.917L5.63965 25.5H24.7971L24.8866 25.4095L45.105 5.39502Z" fill="url(#paint0_linear_159_279)"/>
<path d="M25.0536 25.5L24.9648 25.5901H25.1441L25.0536 25.5Z" fill="url(#paint1_linear_159_279)"/>
<path d="M25 5.39502H4.89502V26.9893V25.8441H5.96117L25 5.39502Z" fill="url(#paint2_linear_159_279)"/>
<path d="M25 25.5H5.96749L4.89502 26.6259V45.605L25 25.5Z" fill="url(#paint3_linear_159_279)"/>
<path d="M25.1441 25.5H24.9648L4.89502 45.605H45.105L25.1441 25.5Z" fill="url(#paint4_linear_159_279)"/>
<path d="M5.63965 25.5H4.89502V26.9893L5.63965 25.5Z" fill="url(#paint5_linear_159_279)"/>
<defs>
<linearGradient id="paint0_linear_159_279" x1="-2.67629" y1="42.1414" x2="34.7399" y2="4.41359" gradientUnits="userSpaceOnUse">
<stop stop-color="#C757BC"/>
<stop offset="0.108" stop-color="#C757BC"/>
<stop offset="0.173" stop-color="#CD5CA9"/>
<stop offset="0.492" stop-color="#E8744F"/>
<stop offset="0.716" stop-color="#F88316"/>
<stop offset="0.823" stop-color="#FF8900"/>
<stop offset="1" stop-color="#FF8900"/>
</linearGradient>
<linearGradient id="paint1_linear_159_279" x1="17.8844" y1="52.8156" x2="36.0405" y2="34.5778" gradientUnits="userSpaceOnUse">
<stop stop-color="#00AFFF"/>
<stop offset="0.296" stop-color="#00AFFF"/>
<stop offset="0.694" stop-color="#5282FF"/>
<stop offset="1" stop-color="#945DFF"/>
</linearGradient>
<linearGradient id="paint2_linear_159_279" x1="4.4727" y1="16.6977" x2="17.4829" y2="3.95918" gradientUnits="userSpaceOnUse">
<stop stop-color="#00AFFF"/>
<stop offset="0.296" stop-color="#00AFFF"/>
<stop offset="0.694" stop-color="#5282FF"/>
<stop offset="1" stop-color="#945DFF"/>
</linearGradient>
<linearGradient id="paint3_linear_159_279" x1="-2.06933" y1="42.3659" x2="35.3481" y2="4.88288" gradientUnits="userSpaceOnUse">
<stop stop-color="#AD4CA4"/>
<stop offset="0.108" stop-color="#AD4CA4"/>
<stop offset="0.173" stop-color="#B25093"/>
<stop offset="0.492" stop-color="#CA6545"/>
<stop offset="0.716" stop-color="#D87213"/>
<stop offset="0.823" stop-color="#DE7700"/>
<stop offset="1" stop-color="#DE7700"/>
</linearGradient>
<linearGradient id="paint4_linear_159_279" x1="17.8844" y1="52.848" x2="36.1223" y2="34.6101" gradientUnits="userSpaceOnUse">
<stop stop-color="#0098DE"/>
<stop offset="0.296" stop-color="#0098DE"/>
<stop offset="0.694" stop-color="#4771DE"/>
<stop offset="1" stop-color="#8151DE"/>
</linearGradient>
<linearGradient id="paint5_linear_159_279" x1="8.09735" y1="20.2561" x2="22.0401" y2="12.9245" gradientUnits="userSpaceOnUse">
<stop stop-color="#0098DE"/>
<stop offset="0.296" stop-color="#0098DE"/>
<stop offset="0.694" stop-color="#4771DE"/>
<stop offset="1" stop-color="#8151DE"/>
</linearGradient>
</defs>
</svg>
