<svg width="50" height="51" viewBox="0 0 50 51" fill="none" xmlns="http://www.w3.org/2000/svg">
<rect x="9.42383" y="3.67896" width="31.1523" height="43.6279" rx="1.06348" fill="url(#paint0_linear_187_1335)"/>
<rect x="9.42383" y="3.67896" width="31.1523" height="43.6279" rx="1.06348" fill="url(#paint1_linear_187_1335)"/>
<g filter="url(#filter0_ii_187_1335)">
<path d="M14.3799 14.6873C14.3799 14.1695 14.7996 13.7498 15.3174 13.7498H18.6182C19.1359 13.7498 19.5557 14.1695 19.5557 14.6873V17.988C19.5557 18.5058 19.1359 18.9255 18.6182 18.9255H15.3174C14.7996 18.9255 14.3799 18.5058 14.3799 17.988V14.6873Z" fill="#FF9544"/>
<path d="M14.3799 14.6873C14.3799 14.1695 14.7996 13.7498 15.3174 13.7498H18.6182C19.1359 13.7498 19.5557 14.1695 19.5557 14.6873V17.988C19.5557 18.5058 19.1359 18.9255 18.6182 18.9255H15.3174C14.7996 18.9255 14.3799 18.5058 14.3799 17.988V14.6873Z" fill="url(#paint2_linear_187_1335)"/>
</g>
<g filter="url(#filter1_ii_187_1335)">
<path d="M22.4121 14.6873C22.4121 14.1695 22.8318 13.7498 23.3496 13.7498H26.6504C27.1681 13.7498 27.5879 14.1695 27.5879 14.6873V17.988C27.5879 18.5058 27.1681 18.9255 26.6504 18.9255H23.3496C22.8318 18.9255 22.4121 18.5058 22.4121 17.988V14.6873Z" fill="#38C6FF"/>
</g>
<g filter="url(#filter2_ii_187_1335)">
<path d="M30.4443 14.6873C30.4443 14.1695 30.8641 13.7498 31.3818 13.7498H34.6826C35.2004 13.7498 35.6201 14.1695 35.6201 14.6873V17.988C35.6201 18.5058 35.2004 18.9255 34.6826 18.9255H31.3818C30.8641 18.9255 30.4443 18.5058 30.4443 17.988V14.6873Z" fill="#FFEC58"/>
</g>
<g filter="url(#filter3_ii_187_1335)">
<path d="M14.3799 23.8425C14.3799 23.3248 14.7996 22.905 15.3174 22.905H18.6182C19.1359 22.905 19.5557 23.3248 19.5557 23.8425V27.1433C19.5557 27.6611 19.1359 28.0808 18.6182 28.0808H15.3174C14.7996 28.0808 14.3799 27.6611 14.3799 27.1433V23.8425Z" fill="#38C6FF"/>
</g>
<g filter="url(#filter4_ii_187_1335)">
<path d="M14.3799 32.9978C14.3799 32.48 14.7996 32.0603 15.3174 32.0603H18.6182C19.1359 32.0603 19.5557 32.48 19.5557 32.9978V36.2986C19.5557 36.8164 19.1359 37.2361 18.6182 37.2361H15.3174C14.7996 37.2361 14.3799 36.8164 14.3799 36.2986V32.9978Z" fill="#FF9544"/>
<path d="M14.3799 32.9978C14.3799 32.48 14.7996 32.0603 15.3174 32.0603H18.6182C19.1359 32.0603 19.5557 32.48 19.5557 32.9978V36.2986C19.5557 36.8164 19.1359 37.2361 18.6182 37.2361H15.3174C14.7996 37.2361 14.3799 36.8164 14.3799 36.2986V32.9978Z" fill="url(#paint3_linear_187_1335)"/>
</g>
<g filter="url(#filter5_ii_187_1335)">
<path d="M22.4121 23.8425C22.4121 23.3248 22.8318 22.905 23.3496 22.905H26.6504C27.1681 22.905 27.5879 23.3248 27.5879 23.8425V27.1433C27.5879 27.6611 27.1681 28.0808 26.6504 28.0808H23.3496C22.8318 28.0808 22.4121 27.6611 22.4121 27.1433V23.8425Z" fill="#FFEC58"/>
</g>
<g filter="url(#filter6_ii_187_1335)">
<path d="M22.4121 32.9978C22.4121 32.48 22.8318 32.0603 23.3496 32.0603H26.6504C27.1681 32.0603 27.5879 32.48 27.5879 32.9978V36.2986C27.5879 36.8164 27.1681 37.2361 26.6504 37.2361H23.3496C22.8318 37.2361 22.4121 36.8164 22.4121 36.2986V32.9978Z" fill="#38C6FF"/>
</g>
<g filter="url(#filter7_ii_187_1335)">
<path d="M30.4443 23.8425C30.4443 23.3248 30.8641 22.905 31.3818 22.905H34.6826C35.2004 22.905 35.6201 23.3248 35.6201 23.8425V27.1433C35.6201 27.6611 35.2004 28.0808 34.6826 28.0808H31.3818C30.8641 28.0808 30.4443 27.6611 30.4443 27.1433V23.8425Z" fill="#FF9544"/>
<path d="M30.4443 23.8425C30.4443 23.3248 30.8641 22.905 31.3818 22.905H34.6826C35.2004 22.905 35.6201 23.3248 35.6201 23.8425V27.1433C35.6201 27.6611 35.2004 28.0808 34.6826 28.0808H31.3818C30.8641 28.0808 30.4443 27.6611 30.4443 27.1433V23.8425Z" fill="url(#paint4_linear_187_1335)"/>
</g>
<g filter="url(#filter8_ii_187_1335)">
<path d="M30.4443 32.9978C30.4443 32.48 30.8641 32.0603 31.3818 32.0603H34.6826C35.2004 32.0603 35.6201 32.48 35.6201 32.9978V36.2986C35.6201 36.8164 35.2004 37.2361 34.6826 37.2361H31.3818C30.8641 37.2361 30.4443 36.8164 30.4443 36.2986V32.9978Z" fill="#FFEC58"/>
</g>
<g filter="url(#filter9_f_187_1335)">
<rect x="37.0117" y="9.24536" width="2.39258" height="34.1309" fill="url(#paint5_linear_187_1335)"/>
</g>
<g filter="url(#filter10_i_187_1335)">
<path d="M40.5761 10.1243H9.42383V7.74147C9.42383 5.4978 11.2427 3.67896 13.4863 3.67896H36.5136C38.7573 3.67896 40.5761 5.4978 40.5761 7.74147V10.1243Z" fill="url(#paint6_linear_187_1335)"/>
<path d="M40.5761 10.1243H9.42383V7.74147C9.42383 5.4978 11.2427 3.67896 13.4863 3.67896H36.5136C38.7573 3.67896 40.5761 5.4978 40.5761 7.74147V10.1243Z" fill="url(#paint7_linear_187_1335)"/>
<path d="M40.5761 10.1243H9.42383V7.74147C9.42383 5.4978 11.2427 3.67896 13.4863 3.67896H36.5136C38.7573 3.67896 40.5761 5.4978 40.5761 7.74147V10.1243Z" fill="url(#paint8_linear_187_1335)"/>
<path d="M40.5761 10.1243H9.42383V7.74147C9.42383 5.4978 11.2427 3.67896 13.4863 3.67896H36.5136C38.7573 3.67896 40.5761 5.4978 40.5761 7.74147V10.1243Z" fill="url(#paint9_linear_187_1335)"/>
<path d="M40.5761 10.1243H9.42383V7.74147C9.42383 5.4978 11.2427 3.67896 13.4863 3.67896H36.5136C38.7573 3.67896 40.5761 5.4978 40.5761 7.74147V10.1243Z" fill="url(#paint10_radial_187_1335)"/>
</g>
<path d="M40.5761 40.9348V43.2444C40.5761 45.488 38.7573 47.3069 36.5136 47.3069H13.4863C11.2427 47.3069 9.42383 45.488 9.42383 43.2444V40.9348H40.5761Z" fill="url(#paint11_linear_187_1335)"/>
<path d="M40.5761 40.9348V43.2444C40.5761 45.488 38.7573 47.3069 36.5136 47.3069H13.4863C11.2427 47.3069 9.42383 45.488 9.42383 43.2444V40.9348H40.5761Z" fill="url(#paint12_linear_187_1335)"/>
<path d="M40.5761 40.9348V43.2444C40.5761 45.488 38.7573 47.3069 36.5136 47.3069H13.4863C11.2427 47.3069 9.42383 45.488 9.42383 43.2444V40.9348H40.5761Z" fill="url(#paint13_radial_187_1335)"/>
<path d="M40.5761 40.9348V43.2444C40.5761 45.488 38.7573 47.3069 36.5136 47.3069H13.4863C11.2427 47.3069 9.42383 45.488 9.42383 43.2444V40.9348H40.5761Z" fill="url(#paint14_linear_187_1335)"/>
<defs>
<filter id="filter0_ii_187_1335" x="14.2572" y="13.627" width="5.4212" height="5.4212" filterUnits="userSpaceOnUse" color-interpolation-filters="sRGB">
<feFlood flood-opacity="0" result="BackgroundImageFix"/>
<feBlend mode="normal" in="SourceGraphic" in2="BackgroundImageFix" result="shape"/>
<feColorMatrix in="SourceAlpha" type="matrix" values="0 0 0 0 0 0 0 0 0 0 0 0 0 0 0 0 0 0 127 0" result="hardAlpha"/>
<feOffset dx="-0.122709" dy="-0.122709"/>
<feGaussianBlur stdDeviation="0.0818061"/>
<feComposite in2="hardAlpha" operator="arithmetic" k2="-1" k3="1"/>
<feColorMatrix type="matrix" values="0 0 0 0 0.913725 0 0 0 0 0.384314 0 0 0 0 0.129412 0 0 0 1 0"/>
<feBlend mode="normal" in2="shape" result="effect1_innerShadow_187_1335"/>
<feColorMatrix in="SourceAlpha" type="matrix" values="0 0 0 0 0 0 0 0 0 0 0 0 0 0 0 0 0 0 127 0" result="hardAlpha"/>
<feOffset dx="0.122709" dy="0.122709"/>
<feGaussianBlur stdDeviation="0.0818061"/>
<feComposite in2="hardAlpha" operator="arithmetic" k2="-1" k3="1"/>
<feColorMatrix type="matrix" values="0 0 0 0 1 0 0 0 0 0.498039 0 0 0 0 0.160784 0 0 0 1 0"/>
<feBlend mode="normal" in2="effect1_innerShadow_187_1335" result="effect2_innerShadow_187_1335"/>
</filter>
<filter id="filter1_ii_187_1335" x="22.2894" y="13.627" width="5.4212" height="5.4212" filterUnits="userSpaceOnUse" color-interpolation-filters="sRGB">
<feFlood flood-opacity="0" result="BackgroundImageFix"/>
<feBlend mode="normal" in="SourceGraphic" in2="BackgroundImageFix" result="shape"/>
<feColorMatrix in="SourceAlpha" type="matrix" values="0 0 0 0 0 0 0 0 0 0 0 0 0 0 0 0 0 0 127 0" result="hardAlpha"/>
<feOffset dx="-0.122709" dy="-0.122709"/>
<feGaussianBlur stdDeviation="0.102258"/>
<feComposite in2="hardAlpha" operator="arithmetic" k2="-1" k3="1"/>
<feColorMatrix type="matrix" values="0 0 0 0 0.0980392 0 0 0 0 0.572549 0 0 0 0 0.866667 0 0 0 1 0"/>
<feBlend mode="normal" in2="shape" result="effect1_innerShadow_187_1335"/>
<feColorMatrix in="SourceAlpha" type="matrix" values="0 0 0 0 0 0 0 0 0 0 0 0 0 0 0 0 0 0 127 0" result="hardAlpha"/>
<feOffset dx="0.122709" dy="0.122709"/>
<feGaussianBlur stdDeviation="0.0818061"/>
<feComposite in2="hardAlpha" operator="arithmetic" k2="-1" k3="1"/>
<feColorMatrix type="matrix" values="0 0 0 0 0.0745098 0 0 0 0 0.709804 0 0 0 0 1 0 0 0 1 0"/>
<feBlend mode="normal" in2="effect1_innerShadow_187_1335" result="effect2_innerShadow_187_1335"/>
</filter>
<filter id="filter2_ii_187_1335" x="30.3216" y="13.627" width="5.4212" height="5.4212" filterUnits="userSpaceOnUse" color-interpolation-filters="sRGB">
<feFlood flood-opacity="0" result="BackgroundImageFix"/>
<feBlend mode="normal" in="SourceGraphic" in2="BackgroundImageFix" result="shape"/>
<feColorMatrix in="SourceAlpha" type="matrix" values="0 0 0 0 0 0 0 0 0 0 0 0 0 0 0 0 0 0 127 0" result="hardAlpha"/>
<feOffset dx="-0.122709" dy="-0.122709"/>
<feGaussianBlur stdDeviation="0.102258"/>
<feComposite in2="hardAlpha" operator="arithmetic" k2="-1" k3="1"/>
<feColorMatrix type="matrix" values="0 0 0 0 0.858824 0 0 0 0 0.752941 0 0 0 0 0.188235 0 0 0 1 0"/>
<feBlend mode="normal" in2="shape" result="effect1_innerShadow_187_1335"/>
<feColorMatrix in="SourceAlpha" type="matrix" values="0 0 0 0 0 0 0 0 0 0 0 0 0 0 0 0 0 0 127 0" result="hardAlpha"/>
<feOffset dx="0.122709" dy="0.122709"/>
<feGaussianBlur stdDeviation="0.0818061"/>
<feComposite in2="hardAlpha" operator="arithmetic" k2="-1" k3="1"/>
<feColorMatrix type="matrix" values="0 0 0 0 0.968627 0 0 0 0 0.858824 0 0 0 0 0.223529 0 0 0 1 0"/>
<feBlend mode="normal" in2="effect1_innerShadow_187_1335" result="effect2_innerShadow_187_1335"/>
</filter>
<filter id="filter3_ii_187_1335" x="14.2572" y="22.7823" width="5.4212" height="5.4212" filterUnits="userSpaceOnUse" color-interpolation-filters="sRGB">
<feFlood flood-opacity="0" result="BackgroundImageFix"/>
<feBlend mode="normal" in="SourceGraphic" in2="BackgroundImageFix" result="shape"/>
<feColorMatrix in="SourceAlpha" type="matrix" values="0 0 0 0 0 0 0 0 0 0 0 0 0 0 0 0 0 0 127 0" result="hardAlpha"/>
<feOffset dx="-0.122709" dy="-0.122709"/>
<feGaussianBlur stdDeviation="0.102258"/>
<feComposite in2="hardAlpha" operator="arithmetic" k2="-1" k3="1"/>
<feColorMatrix type="matrix" values="0 0 0 0 0.0980392 0 0 0 0 0.572549 0 0 0 0 0.866667 0 0 0 1 0"/>
<feBlend mode="normal" in2="shape" result="effect1_innerShadow_187_1335"/>
<feColorMatrix in="SourceAlpha" type="matrix" values="0 0 0 0 0 0 0 0 0 0 0 0 0 0 0 0 0 0 127 0" result="hardAlpha"/>
<feOffset dx="0.122709" dy="0.122709"/>
<feGaussianBlur stdDeviation="0.0818061"/>
<feComposite in2="hardAlpha" operator="arithmetic" k2="-1" k3="1"/>
<feColorMatrix type="matrix" values="0 0 0 0 0.0745098 0 0 0 0 0.709804 0 0 0 0 1 0 0 0 1 0"/>
<feBlend mode="normal" in2="effect1_innerShadow_187_1335" result="effect2_innerShadow_187_1335"/>
</filter>
<filter id="filter4_ii_187_1335" x="14.2572" y="31.9376" width="5.4212" height="5.4212" filterUnits="userSpaceOnUse" color-interpolation-filters="sRGB">
<feFlood flood-opacity="0" result="BackgroundImageFix"/>
<feBlend mode="normal" in="SourceGraphic" in2="BackgroundImageFix" result="shape"/>
<feColorMatrix in="SourceAlpha" type="matrix" values="0 0 0 0 0 0 0 0 0 0 0 0 0 0 0 0 0 0 127 0" result="hardAlpha"/>
<feOffset dx="-0.122709" dy="-0.122709"/>
<feGaussianBlur stdDeviation="0.0818061"/>
<feComposite in2="hardAlpha" operator="arithmetic" k2="-1" k3="1"/>
<feColorMatrix type="matrix" values="0 0 0 0 0.913725 0 0 0 0 0.384314 0 0 0 0 0.129412 0 0 0 1 0"/>
<feBlend mode="normal" in2="shape" result="effect1_innerShadow_187_1335"/>
<feColorMatrix in="SourceAlpha" type="matrix" values="0 0 0 0 0 0 0 0 0 0 0 0 0 0 0 0 0 0 127 0" result="hardAlpha"/>
<feOffset dx="0.122709" dy="0.122709"/>
<feGaussianBlur stdDeviation="0.0818061"/>
<feComposite in2="hardAlpha" operator="arithmetic" k2="-1" k3="1"/>
<feColorMatrix type="matrix" values="0 0 0 0 1 0 0 0 0 0.498039 0 0 0 0 0.160784 0 0 0 1 0"/>
<feBlend mode="normal" in2="effect1_innerShadow_187_1335" result="effect2_innerShadow_187_1335"/>
</filter>
<filter id="filter5_ii_187_1335" x="22.2894" y="22.7823" width="5.4212" height="5.4212" filterUnits="userSpaceOnUse" color-interpolation-filters="sRGB">
<feFlood flood-opacity="0" result="BackgroundImageFix"/>
<feBlend mode="normal" in="SourceGraphic" in2="BackgroundImageFix" result="shape"/>
<feColorMatrix in="SourceAlpha" type="matrix" values="0 0 0 0 0 0 0 0 0 0 0 0 0 0 0 0 0 0 127 0" result="hardAlpha"/>
<feOffset dx="-0.122709" dy="-0.122709"/>
<feGaussianBlur stdDeviation="0.102258"/>
<feComposite in2="hardAlpha" operator="arithmetic" k2="-1" k3="1"/>
<feColorMatrix type="matrix" values="0 0 0 0 0.858824 0 0 0 0 0.752941 0 0 0 0 0.188235 0 0 0 1 0"/>
<feBlend mode="normal" in2="shape" result="effect1_innerShadow_187_1335"/>
<feColorMatrix in="SourceAlpha" type="matrix" values="0 0 0 0 0 0 0 0 0 0 0 0 0 0 0 0 0 0 127 0" result="hardAlpha"/>
<feOffset dx="0.122709" dy="0.122709"/>
<feGaussianBlur stdDeviation="0.0818061"/>
<feComposite in2="hardAlpha" operator="arithmetic" k2="-1" k3="1"/>
<feColorMatrix type="matrix" values="0 0 0 0 0.968627 0 0 0 0 0.858824 0 0 0 0 0.223529 0 0 0 1 0"/>
<feBlend mode="normal" in2="effect1_innerShadow_187_1335" result="effect2_innerShadow_187_1335"/>
</filter>
<filter id="filter6_ii_187_1335" x="22.2894" y="31.9376" width="5.4212" height="5.4212" filterUnits="userSpaceOnUse" color-interpolation-filters="sRGB">
<feFlood flood-opacity="0" result="BackgroundImageFix"/>
<feBlend mode="normal" in="SourceGraphic" in2="BackgroundImageFix" result="shape"/>
<feColorMatrix in="SourceAlpha" type="matrix" values="0 0 0 0 0 0 0 0 0 0 0 0 0 0 0 0 0 0 127 0" result="hardAlpha"/>
<feOffset dx="-0.122709" dy="-0.122709"/>
<feGaussianBlur stdDeviation="0.102258"/>
<feComposite in2="hardAlpha" operator="arithmetic" k2="-1" k3="1"/>
<feColorMatrix type="matrix" values="0 0 0 0 0.0980392 0 0 0 0 0.572549 0 0 0 0 0.866667 0 0 0 1 0"/>
<feBlend mode="normal" in2="shape" result="effect1_innerShadow_187_1335"/>
<feColorMatrix in="SourceAlpha" type="matrix" values="0 0 0 0 0 0 0 0 0 0 0 0 0 0 0 0 0 0 127 0" result="hardAlpha"/>
<feOffset dx="0.122709" dy="0.122709"/>
<feGaussianBlur stdDeviation="0.0818061"/>
<feComposite in2="hardAlpha" operator="arithmetic" k2="-1" k3="1"/>
<feColorMatrix type="matrix" values="0 0 0 0 0.0745098 0 0 0 0 0.709804 0 0 0 0 1 0 0 0 1 0"/>
<feBlend mode="normal" in2="effect1_innerShadow_187_1335" result="effect2_innerShadow_187_1335"/>
</filter>
<filter id="filter7_ii_187_1335" x="30.3216" y="22.7823" width="5.4212" height="5.4212" filterUnits="userSpaceOnUse" color-interpolation-filters="sRGB">
<feFlood flood-opacity="0" result="BackgroundImageFix"/>
<feBlend mode="normal" in="SourceGraphic" in2="BackgroundImageFix" result="shape"/>
<feColorMatrix in="SourceAlpha" type="matrix" values="0 0 0 0 0 0 0 0 0 0 0 0 0 0 0 0 0 0 127 0" result="hardAlpha"/>
<feOffset dx="-0.122709" dy="-0.122709"/>
<feGaussianBlur stdDeviation="0.0818061"/>
<feComposite in2="hardAlpha" operator="arithmetic" k2="-1" k3="1"/>
<feColorMatrix type="matrix" values="0 0 0 0 0.913725 0 0 0 0 0.384314 0 0 0 0 0.129412 0 0 0 1 0"/>
<feBlend mode="normal" in2="shape" result="effect1_innerShadow_187_1335"/>
<feColorMatrix in="SourceAlpha" type="matrix" values="0 0 0 0 0 0 0 0 0 0 0 0 0 0 0 0 0 0 127 0" result="hardAlpha"/>
<feOffset dx="0.122709" dy="0.122709"/>
<feGaussianBlur stdDeviation="0.0818061"/>
<feComposite in2="hardAlpha" operator="arithmetic" k2="-1" k3="1"/>
<feColorMatrix type="matrix" values="0 0 0 0 1 0 0 0 0 0.498039 0 0 0 0 0.160784 0 0 0 1 0"/>
<feBlend mode="normal" in2="effect1_innerShadow_187_1335" result="effect2_innerShadow_187_1335"/>
</filter>
<filter id="filter8_ii_187_1335" x="30.3216" y="31.9376" width="5.4212" height="5.4212" filterUnits="userSpaceOnUse" color-interpolation-filters="sRGB">
<feFlood flood-opacity="0" result="BackgroundImageFix"/>
<feBlend mode="normal" in="SourceGraphic" in2="BackgroundImageFix" result="shape"/>
<feColorMatrix in="SourceAlpha" type="matrix" values="0 0 0 0 0 0 0 0 0 0 0 0 0 0 0 0 0 0 127 0" result="hardAlpha"/>
<feOffset dx="-0.122709" dy="-0.122709"/>
<feGaussianBlur stdDeviation="0.102258"/>
<feComposite in2="hardAlpha" operator="arithmetic" k2="-1" k3="1"/>
<feColorMatrix type="matrix" values="0 0 0 0 0.858824 0 0 0 0 0.752941 0 0 0 0 0.188235 0 0 0 1 0"/>
<feBlend mode="normal" in2="shape" result="effect1_innerShadow_187_1335"/>
<feColorMatrix in="SourceAlpha" type="matrix" values="0 0 0 0 0 0 0 0 0 0 0 0 0 0 0 0 0 0 127 0" result="hardAlpha"/>
<feOffset dx="0.122709" dy="0.122709"/>
<feGaussianBlur stdDeviation="0.0818061"/>
<feComposite in2="hardAlpha" operator="arithmetic" k2="-1" k3="1"/>
<feColorMatrix type="matrix" values="0 0 0 0 0.968627 0 0 0 0 0.858824 0 0 0 0 0.223529 0 0 0 1 0"/>
<feBlend mode="normal" in2="effect1_innerShadow_187_1335" result="effect2_innerShadow_187_1335"/>
</filter>
<filter id="filter9_f_187_1335" x="36.6027" y="8.83633" width="3.21064" height="34.9489" filterUnits="userSpaceOnUse" color-interpolation-filters="sRGB">
<feFlood flood-opacity="0" result="BackgroundImageFix"/>
<feBlend mode="normal" in="SourceGraphic" in2="BackgroundImageFix" result="shape"/>
<feGaussianBlur stdDeviation="0.204515" result="effect1_foregroundBlur_187_1335"/>
</filter>
<filter id="filter10_i_187_1335" x="9.42383" y="3.67896" width="31.1523" height="6.48622" filterUnits="userSpaceOnUse" color-interpolation-filters="sRGB">
<feFlood flood-opacity="0" result="BackgroundImageFix"/>
<feBlend mode="normal" in="SourceGraphic" in2="BackgroundImageFix" result="shape"/>
<feColorMatrix in="SourceAlpha" type="matrix" values="0 0 0 0 0 0 0 0 0 0 0 0 0 0 0 0 0 0 127 0" result="hardAlpha"/>
<feOffset dy="0.0409031"/>
<feGaussianBlur stdDeviation="0.153386"/>
<feComposite in2="hardAlpha" operator="arithmetic" k2="-1" k3="1"/>
<feColorMatrix type="matrix" values="0 0 0 0 0.380392 0 0 0 0 0.407843 0 0 0 0 0.666667 0 0 0 1 0"/>
<feBlend mode="normal" in2="shape" result="effect1_innerShadow_187_1335"/>
</filter>
<linearGradient id="paint0_linear_187_1335" x1="25" y1="12.1262" x2="25" y2="41.1301" gradientUnits="userSpaceOnUse">
<stop stop-color="#62326D"/>
<stop offset="1" stop-color="#434486"/>
</linearGradient>
<linearGradient id="paint1_linear_187_1335" x1="9.42383" y1="34.5872" x2="13.0371" y2="34.6848" gradientUnits="userSpaceOnUse">
<stop offset="0.03125" stop-color="#412C4C"/>
<stop offset="1" stop-color="#412C4C" stop-opacity="0"/>
</linearGradient>
<linearGradient id="paint2_linear_187_1335" x1="14.624" y1="17.6194" x2="16.2598" y2="17.6194" gradientUnits="userSpaceOnUse">
<stop offset="0.333333" stop-color="#FF945C"/>
<stop offset="1" stop-color="#FF945C" stop-opacity="0"/>
</linearGradient>
<linearGradient id="paint3_linear_187_1335" x1="14.624" y1="35.9299" x2="16.2598" y2="35.9299" gradientUnits="userSpaceOnUse">
<stop offset="0.333333" stop-color="#FF945C"/>
<stop offset="1" stop-color="#FF945C" stop-opacity="0"/>
</linearGradient>
<linearGradient id="paint4_linear_187_1335" x1="30.6885" y1="26.7747" x2="32.3242" y2="26.7747" gradientUnits="userSpaceOnUse">
<stop offset="0.333333" stop-color="#FF945C"/>
<stop offset="1" stop-color="#FF945C" stop-opacity="0"/>
</linearGradient>
<linearGradient id="paint5_linear_187_1335" x1="38.208" y1="9.24536" x2="38.208" y2="43.3762" gradientUnits="userSpaceOnUse">
<stop stop-color="#674876"/>
<stop offset="1" stop-color="#555187"/>
</linearGradient>
<linearGradient id="paint6_linear_187_1335" x1="25" y1="3.67896" x2="25" y2="10.1243" gradientUnits="userSpaceOnUse">
<stop stop-color="#636AB6"/>
<stop offset="1" stop-color="#6C6EBE"/>
</linearGradient>
<linearGradient id="paint7_linear_187_1335" x1="26.8066" y1="10.3684" x2="26.8066" y2="9.29419" gradientUnits="userSpaceOnUse">
<stop stop-color="#6062B1"/>
<stop offset="1" stop-color="#6062B1" stop-opacity="0"/>
</linearGradient>
<linearGradient id="paint8_linear_187_1335" x1="9.42383" y1="10.1243" x2="14.4531" y2="10.1243" gradientUnits="userSpaceOnUse">
<stop offset="0.135922" stop-color="#484B86"/>
<stop offset="1" stop-color="#5E61AD" stop-opacity="0"/>
</linearGradient>
<linearGradient id="paint9_linear_187_1335" x1="40.5761" y1="10.1243" x2="35.9863" y2="10.1243" gradientUnits="userSpaceOnUse">
<stop offset="0.12766" stop-color="#7277C8"/>
<stop offset="1" stop-color="#7277C8" stop-opacity="0"/>
</linearGradient>
<radialGradient id="paint10_radial_187_1335" cx="0" cy="0" r="1" gradientUnits="userSpaceOnUse" gradientTransform="translate(40.5761 9.68481) rotate(-180) scale(1.02539 4.95605)">
<stop stop-color="#6C6FB4"/>
<stop offset="1" stop-color="#6C6FB4" stop-opacity="0"/>
</radialGradient>
<linearGradient id="paint11_linear_187_1335" x1="25" y1="40.9348" x2="25" y2="47.3069" gradientUnits="userSpaceOnUse">
<stop stop-color="#6B4390"/>
<stop offset="1" stop-color="#76509E"/>
</linearGradient>
<linearGradient id="paint12_linear_187_1335" x1="9.42383" y1="42.8879" x2="13.1836" y2="42.8879" gradientUnits="userSpaceOnUse">
<stop offset="0.164179" stop-color="#4F3D6C"/>
<stop offset="1" stop-color="#6E4693" stop-opacity="0"/>
</linearGradient>
<radialGradient id="paint13_radial_187_1335" cx="0" cy="0" r="1" gradientUnits="userSpaceOnUse" gradientTransform="translate(37.9882 40.3977) rotate(90) scale(4.83398 2.53906)">
<stop stop-color="#6B5094"/>
<stop offset="1" stop-color="#6B5094" stop-opacity="0"/>
</radialGradient>
<linearGradient id="paint14_linear_187_1335" x1="24.5117" y1="40.4954" x2="24.5117" y2="41.4231" gradientUnits="userSpaceOnUse">
<stop offset="0.157895" stop-color="#5E3D7F"/>
<stop offset="1" stop-color="#5E3D7F" stop-opacity="0"/>
</linearGradient>
</defs>
</svg>
