<svg width="50" height="51" viewBox="0 0 50 51" fill="none" xmlns="http://www.w3.org/2000/svg">
<path d="M27.7993 18.6252H40.3319L27.7993 6.021V18.6252ZM11.8488 2.5835H30.078L43.7498 16.3335V43.8335C43.7498 46.3648 41.7095 48.4168 39.1925 48.4168H11.8488C9.3195 48.4168 7.2915 46.3543 7.2915 43.8335V7.16683C7.2915 4.62308 9.3195 2.5835 11.8488 2.5835ZM12.1222 33.521L20.6444 42.0918L23.88 38.8606L18.5708 33.521L23.88 28.1814L20.6444 24.9502L12.1222 33.521ZM37.5519 33.521L29.0298 24.9502L25.7941 28.1814L31.1034 33.521L25.7941 38.8606L29.0298 42.0918L37.5519 33.521Z" fill="#8BC34A"/>
</svg>
