<svg width="current" height="current" viewBox="0 0 54 55" fill="none" xmlns="http://www.w3.org/2000/svg">
    <g clip-path="url(#clip0_167_618)">
        <path d="M35.0105 21.127C34.9479 21.1909 34.885 21.2533 34.8193 21.3206C31.1602 24.9624 26.5574 26.2043 24.538 24.0908C23.6184 23.128 23.3918 21.6341 23.7665 19.9498C17.7484 20.6706 12.1654 23.5135 7.98069 27.9876C3.79593 32.4617 1.2718 38.2868 0.84375 44.4578H52.7344C52.3713 39.2154 50.4937 34.2002 47.3389 30.0473C44.1839 25.8946 39.8937 22.7902 35.0105 21.127ZM15.5114 34.8371C15.0287 34.8371 14.5568 34.6911 14.1555 34.4172C13.7541 34.1435 13.4413 33.7542 13.2566 33.2989C13.0719 32.8436 13.0235 32.3426 13.1177 31.8592C13.2118 31.3758 13.4443 30.932 13.7856 30.5834C14.1269 30.235 14.5618 29.9976 15.0352 29.9015C15.5087 29.8054 15.9994 29.8547 16.4454 30.0432C16.8913 30.2318 17.2725 30.5512 17.5407 30.961C17.8089 31.3708 17.952 31.8525 17.952 32.3453C17.9517 33.0061 17.6945 33.6398 17.2368 34.1071C16.7792 34.5743 16.1586 34.8369 15.5114 34.8371ZM36.2887 34.8371C35.806 34.8371 35.3341 34.6911 34.9329 34.4172C34.5315 34.1435 34.2187 33.7542 34.034 33.2989C33.8492 32.8436 33.8007 32.3426 33.8951 31.8592C33.9892 31.3758 34.2215 30.932 34.563 30.5834C34.9042 30.235 35.3391 29.9976 35.8126 29.9015C36.2861 29.8054 36.7768 29.8547 37.2227 30.0432C37.6686 30.2318 38.0498 30.5512 38.318 30.961C38.5863 31.3708 38.7293 31.8525 38.7293 32.3453C38.7291 33.0061 38.4719 33.6396 38.0143 34.1071C37.5566 34.5743 36.9359 34.8369 36.2887 34.8371Z"
              fill="current"/>
        <path d="M35.0105 21.1286C32.359 20.2286 29.5827 19.7712 26.7885 19.7741C25.7787 19.774 24.7698 19.8333 23.7666 19.9516C24.2114 17.9396 25.5117 15.6508 27.5029 13.6674C31.1614 10.0229 35.7655 8.78261 37.7849 10.8972C39.7687 12.9734 38.5211 17.5138 35.0105 21.1286Z"
              fill="current"/>
    </g>
    <defs>
        <clipPath id="clip0_167_618">
            <rect width="54" height="54" fill="current" transform="translate(0 0.5)"/>
        </clipPath>
    </defs>
</svg>
